<?xml version="1.0" encoding="UTF-8" standalone="no"?>
<!DOCTYPE svg PUBLIC "-//W3C//DTD SVG 1.1//EN" "http://www.w3.org/Graphics/SVG/1.1/DTD/svg11.dtd">
<!-- Created with Vectornator (http://vectornator.io/) -->
<svg height="100%" stroke-miterlimit="10" style="fill-rule:nonzero;clip-rule:evenodd;stroke-linecap:round;stroke-linejoin:round;" version="1.1" viewBox="0 0 32 32" width="100%" xml:space="preserve" xmlns="http://www.w3.org/2000/svg" xmlns:vectornator="http://vectornator.io" xmlns:xlink="http://www.w3.org/1999/xlink">
<defs/>
<g id="Untitled" vectornator:layerName="Untitled">
<path d="M30 15C29.7916 14.9987 29.5888 14.9322 29.42 14.81L16 5.23L2.58 14.81C2.13369 15.0743 1.55935 14.9535 1.25736 14.5318C0.955367 14.11 1.02599 13.5274 1.42 13.19L15.42 3.19C15.7672 2.94282 16.2328 2.94282 16.58 3.19L30.58 13.19C30.9302 13.4435 31.0778 13.8934 30.9459 14.3052C30.814 14.7169 30.4324 14.9972 30 15Z" fill="#000000" fill-rule="nonzero" opacity="1" stroke="none" vectornator:layerName="path"/>
<path d="M25 29L20 29C19.4477 29 19 28.5523 19 28L19 21L13 21L13 28C13 28.5523 12.5523 29 12 29L7 29C5.34315 29 4 27.6569 4 26L4 16C4 15.4477 4.44772 15 5 15C5.55228 15 6 15.4477 6 16L6 26C6 26.5523 6.44772 27 7 27L11 27L11 20C11 19.4477 11.4477 19 12 19L20 19C20.5523 19 21 19.4477 21 20L21 27L25 27C25.5523 27 26 26.5523 26 26L26 16C26 15.4477 26.4477 15 27 15C27.5523 15 28 15.4477 28 16L28 26C28 27.6569 26.6569 29 25 29Z" fill="#000000" fill-rule="nonzero" opacity="1" stroke="none" vectornator:layerName="path"/>
</g>
</svg>
