<?xml version="1.0" encoding="UTF-8" standalone="no"?>
<!DOCTYPE svg PUBLIC "-//W3C//DTD SVG 1.1//EN" "http://www.w3.org/Graphics/SVG/1.1/DTD/svg11.dtd">
<!-- Created with Vectornator (http://vectornator.io/) -->
<svg height="100%" stroke-miterlimit="10" style="fill-rule:nonzero;clip-rule:evenodd;stroke-linecap:round;stroke-linejoin:round;" version="1.1" viewBox="0 0 36 32" width="100%" xml:space="preserve" xmlns="http://www.w3.org/2000/svg" xmlns:vectornator="http://vectornator.io" xmlns:xlink="http://www.w3.org/1999/xlink">
<defs/>
<g id="Untitled" vectornator:layerName="Untitled">
<path d="M32.8648 16.0149L32.241 16.0149C31.8892 14.8005 30.7344 13.9023 29.354 13.9023L26.268 13.9023C25.9029 13.9023 25.6043 14.187 25.6043 14.5348C25.6043 14.8827 25.9029 15.1673 26.268 15.1673L29.354 15.1673C30.2566 15.1673 30.9933 15.8568 31.0265 16.7106L31.0265 20.8219C31.0265 20.8346 31.0331 20.8409 31.0331 20.8536L31.0331 21.4924C31.0331 24.5158 28.4514 26.9699 25.3056 26.9699C24.8543 26.9572 24.4097 26.8687 23.9717 26.7232C23.1023 26.4196 22.3258 25.825 21.7417 25.0028C21.0781 24.073 20.5471 23.4531 20.0228 22.9851C18.8813 21.9604 17.0828 21.9604 15.9413 22.9851C15.417 23.4531 14.8927 24.073 14.2224 25.0028C13.6317 25.825 12.8619 26.4196 11.9925 26.7232C11.5611 26.875 11.1098 26.9572 10.685 26.9699C7.5127 26.9699 4.93767 24.5094 4.93767 21.4924L4.93767 20.8536C4.93767 20.8409 4.94431 20.8346 4.94431 20.8219L4.94431 16.7106C4.97749 15.8568 5.71417 15.1673 6.61675 15.1673L9.47716 15.1673C9.84218 15.1673 10.1408 14.8827 10.1408 14.5348C10.1408 14.187 9.84218 13.9023 9.47716 13.9023L6.61675 13.9023C5.23632 13.9023 4.08154 14.8005 3.7298 16.0149L3.10595 16.0149C2.16354 16.0149 1.39369 16.7486 1.39369 17.6468L1.39369 19.8162C1.39369 20.7207 2.16354 21.4481 3.10595 21.4481L3.61034 21.4481L3.61034 21.4861C3.61034 25.2052 6.78267 28.2286 10.7116 28.2286C11.3022 28.2096 11.8929 28.1021 12.457 27.8997C13.5919 27.5012 14.5808 26.7422 15.3241 25.7049C15.9346 24.8573 16.4059 24.2944 16.8505 23.8959C17.4943 23.3203 18.4699 23.3203 19.1203 23.8959C19.5715 24.2944 20.0428 24.851 20.6467 25.7049C21.39 26.7422 22.3855 27.5012 23.5137 27.8997C24.0779 28.0957 24.6685 28.2096 25.2791 28.2286C29.1815 28.2286 32.3538 25.2052 32.3538 21.4861L32.3538 21.4481L32.8582 21.4481C33.8006 21.4481 34.5704 20.7144 34.5704 19.8162L34.5704 17.6468C34.5771 16.7486 33.8072 16.0149 32.8648 16.0149ZM3.10595 20.1894C2.89358 20.1894 2.72102 20.025 2.72102 19.8162L2.72102 17.6468C2.72102 17.4444 2.89358 17.2799 3.10595 17.2799L3.61034 17.2799L3.61034 20.1894L3.10595 20.1894ZM33.2497 19.8162C33.2497 20.0186 33.0772 20.1831 32.8648 20.1831L32.3604 20.1831L32.3604 17.2736L32.8648 17.2736C33.0772 17.2736 33.2497 17.438 33.2497 17.6404L33.2497 19.8162Z" fill="#000000" fill-rule="nonzero" opacity="1" stroke="#000000" stroke-linecap="butt" stroke-linejoin="round" stroke-width="0.507128" vectornator:layerName="path"/>
<path d="M19.555 14.9215C22.7611 14.9215 25.3661 12.5881 25.3661 9.71636C25.3661 6.84459 22.7611 4.51127 19.555 4.51127C19.1468 4.51127 18.8129 4.81042 18.8129 5.17604L18.8129 14.2633C18.8129 14.6223 19.1468 14.9215 19.555 14.9215ZM20.2972 5.89398C22.3307 6.21307 23.8818 7.80185 23.8818 9.71636C23.8818 11.6309 22.3307 13.2197 20.2972 13.5387L20.2972 5.89398Z" fill="#000000" fill-rule="nonzero" opacity="1" stroke="#000000" stroke-linecap="butt" stroke-linejoin="round" stroke-width="0.507128" vectornator:layerName="path"/>
<path d="M17.1244 7.50672C17.1244 5.87554 15.7427 4.55187 14.04 4.55187C12.3372 4.55187 10.9555 5.87554 10.9555 7.50672C10.9555 7.87441 11.2695 8.17524 11.6533 8.17524C12.0371 8.17524 12.3512 7.87441 12.3512 7.50672C12.3512 6.61759 13.1048 5.88891 14.04 5.88891C14.9751 5.88891 15.7287 6.61091 15.7287 7.50672C15.7287 8.40254 14.9751 9.12454 14.04 9.12454C13.6561 9.12454 13.3421 9.42537 13.3421 9.79306C13.3421 10.1607 13.6561 10.4616 14.04 10.4616C14.9681 10.4616 15.7287 11.1836 15.7287 12.0794C15.7287 12.9752 14.9751 13.6972 14.04 13.6972C13.1048 13.6972 12.3512 12.9752 12.3512 12.0794C12.3512 11.7117 12.0371 11.4109 11.6533 11.4109C11.2695 11.4109 10.9555 11.7117 10.9555 12.0794C10.9555 13.7106 12.3372 15.0343 14.04 15.0343C15.7427 15.0343 17.1244 13.7106 17.1244 12.0794C17.1244 11.1568 16.9068 10.3732 16.216 9.83169C16.9068 9.2835 17.1244 8.4226 17.1244 7.50672Z" fill="#000000" fill-rule="nonzero" opacity="1" stroke="#000000" stroke-linecap="butt" stroke-linejoin="round" stroke-width="0.507128" vectornator:layerName="path"/>
<path d="M21.9349 17.5081L29.4662 17.5233" fill="none" opacity="1" stroke="#000000" stroke-linecap="round" stroke-linejoin="round" stroke-width="1.01426"/>
<path d="M23.1777 20.0031L28.4819 20.064" fill="none" opacity="1" stroke="#000000" stroke-linecap="round" stroke-linejoin="round" stroke-width="1.01426"/>
<path d="M24.3547 22.7877L27.3981 22.7891" fill="none" opacity="1" stroke="#000000" stroke-linecap="round" stroke-linejoin="round" stroke-width="1.01426"/>
<path d="M6.68313 17.5404L14.2144 17.5556" fill="none" opacity="1" stroke="#000000" stroke-linecap="round" stroke-linejoin="round" stroke-width="1.01426"/>
<path d="M7.4489 20.0354L12.7531 20.0963" fill="none" opacity="1" stroke="#000000" stroke-linecap="round" stroke-linejoin="round" stroke-width="1.01426"/>
<path d="M8.64205 22.766L11.6855 22.7675" fill="none" opacity="1" stroke="#000000" stroke-linecap="round" stroke-linejoin="round" stroke-width="1.01426"/>
</g>
</svg>
